<?xml version="1.0" standalone="no"?>
<!DOCTYPE svg PUBLIC "-//W3C//DTD SVG 20010904//EN"
 "http://www.w3.org/TR/2001/REC-SVG-20010904/DTD/svg10.dtd">
<svg version="1.0" xmlns="http://www.w3.org/2000/svg"
 width="300.000000pt" height="300.000000pt" viewBox="0 0 300.000000 300.000000"
 preserveAspectRatio="xMidYMid meet">
<metadata>
Created by potrace 1.10, written by Peter Selinger 2001-2011
</metadata>
<g transform="translate(0.000000,300.000000) scale(0.100000,-0.100000)"
fill="#000000" stroke="none">
<path d="M820 1500 l0 -530 80 0 80 0 0 343 0 342 178 -342 177 -343 73 0 72
0 0 530 0 530 -80 0 -80 0 -2 -334 -3 -334 -172 331 -171 332 -76 3 -76 3 0
-531z m627 10 c2 -401 0 -478 -12 -494 -11 -15 -17 -17 -29 -7 -11 9 -15 9
-18 -1 -11 -31 -65 56 -193 307 -127 249 -172 328 -199 347 -6 5 -19 -2 -28
-13 -16 -19 -18 -50 -18 -318 0 -218 -3 -300 -12 -309 -16 -16 -63 -15 -77 2
-15 18 -14 935 1 953 16 20 75 16 95 -7 10 -10 25 -36 32 -57 8 -21 17 -40 21
-43 4 -3 21 -32 37 -65 34 -69 143 -280 160 -310 6 -11 16 -32 23 -47 19 -40
70 -98 86 -98 29 0 35 54 35 334 1 313 2 319 62 307 l32 -7 2 -474z"/>
<path d="M1560 1500 l0 -531 310 2 310 2 0 81 0 81 -225 -3 -225 -3 0 450 0
451 -85 0 -85 0 0 -530z m127 476 c3 -3 6 -189 8 -414 2 -268 7 -416 14 -430
15 -27 50 -32 248 -31 94 1 176 -2 182 -6 14 -8 14 -50 1 -74 -8 -17 -28 -18
-266 -15 -154 2 -261 7 -267 13 -14 14 -11 949 3 967 8 9 20 10 42 3 17 -4 33
-10 35 -13z"/>
</g>
</svg>
