<svg id="svg" version="1.1" width="400" height="300.1733102253033" viewBox="0 0 400 300.1733102253033" xmlns="http://www.w3.org/2000/svg" xmlns:xlink="http://www.w3.org/1999/xlink"><g id="svgg"><path id="path0" d="M274.638 185.908 C 274.733 186.061,274.547 186.186,274.224 186.186 C 273.868 186.186,273.572 186.451,273.467 186.862 C 273.373 187.233,268.959 191.929,263.658 197.297 C 254.149 206.926,253.453 207.736,253.453 209.179 L 253.453 209.910 275.616 209.910 C 291.174 209.910,297.875 210.007,298.104 210.236 C 298.339 210.471,298.487 210.471,298.632 210.236 C 298.753 210.041,299.903 209.910,301.495 209.910 C 305.179 209.910,304.989 210.086,304.861 206.784 C 304.791 204.969,304.868 203.900,305.079 203.770 C 305.489 203.517,305.512 200.101,305.105 199.850 C 304.940 199.748,304.805 199.072,304.805 198.348 C 304.805 197.625,304.940 196.949,305.105 196.847 C 305.270 196.745,305.405 195.926,305.405 195.027 C 305.405 194.129,305.270 193.393,305.105 193.393 C 304.940 193.393,304.805 192.658,304.805 191.759 C 304.805 190.861,304.940 190.042,305.105 189.940 C 305.270 189.838,305.405 189.552,305.405 189.304 C 305.405 189.056,305.270 188.937,305.105 189.039 C 304.940 189.141,304.805 188.938,304.805 188.589 C 304.805 188.239,304.940 188.036,305.105 188.138 C 305.585 188.435,305.452 187.091,304.952 186.591 C 304.703 186.342,304.577 186.011,304.673 185.856 C 304.859 185.556,289.416 185.707,285.177 186.047 C 283.577 186.175,282.879 186.135,283.009 185.924 C 283.139 185.714,281.778 185.615,278.834 185.621 C 276.228 185.626,274.535 185.741,274.638 185.908 " stroke="none" fill="#f4bf3e" fill-rule="evenodd"></path><path id="path1" d="M116.286 98.368 C 116.362 98.444,116.006 98.958,115.494 99.509 C 114.727 100.337,114.529 100.428,114.360 100.031 C 114.248 99.766,114.147 106.745,114.135 115.541 C 114.121 126.015,114.218 131.532,114.414 131.532 C 114.751 131.532,114.832 134.017,114.506 134.343 C 114.181 134.668,114.136 135.435,114.441 135.435 C 114.592 135.435,114.715 135.646,114.715 135.904 C 114.715 136.161,114.580 136.288,114.414 136.186 C 114.076 135.977,114.053 144.778,114.370 152.807 C 114.477 155.507,114.494 157.760,114.407 157.813 C 114.321 157.866,114.217 161.265,114.176 165.366 C 114.126 170.437,114.198 172.679,114.404 172.372 C 114.615 172.057,114.692 172.777,114.661 174.775 C 114.622 177.308,114.594 177.442,114.414 175.976 C 114.293 174.984,114.207 176.664,114.199 180.180 C 114.191 183.431,114.287 185.635,114.414 185.135 C 114.590 184.443,114.654 184.722,114.689 186.336 C 114.963 199.184,114.891 202.672,114.387 200.901 C 114.270 200.488,114.185 201.772,114.199 203.754 C 114.222 207.063,114.238 207.161,114.394 204.955 C 114.589 202.205,115.004 202.817,115.011 205.864 C 115.018 208.802,114.697 208.709,124.778 208.709 C 130.281 208.709,133.333 208.602,133.333 208.408 C 133.333 208.243,133.476 208.108,133.651 208.108 C 133.826 208.108,133.894 208.231,133.801 208.381 C 133.546 208.794,136.936 208.923,137.276 208.513 C 137.433 208.323,137.894 208.084,138.298 207.982 L 139.035 207.797 138.962 182.127 C 138.922 168.008,138.812 156.457,138.719 156.456 C 138.626 156.456,138.558 155.173,138.569 153.604 C 138.580 152.036,138.690 150.752,138.814 150.752 C 138.938 150.751,139.039 150.405,139.039 149.982 C 139.039 149.546,138.909 149.294,138.739 149.399 C 138.571 149.503,138.440 149.278,138.443 148.892 C 138.447 148.334,138.505 148.286,138.739 148.649 C 138.914 148.919,139.032 148.956,139.034 148.741 C 139.037 148.545,138.904 148.300,138.739 148.198 C 138.574 148.096,138.448 147.581,138.460 147.054 C 138.477 146.247,138.521 146.190,138.739 146.697 C 138.985 147.270,138.998 147.266,139.018 146.622 C 139.031 146.212,138.862 145.946,138.589 145.946 C 138.210 145.946,138.138 145.295,138.138 141.892 C 138.138 139.662,138.261 137.838,138.410 137.838 C 138.560 137.838,138.616 137.584,138.535 137.274 C 138.413 136.806,138.519 136.735,139.164 136.859 C 139.591 136.940,139.940 137.208,139.940 137.455 C 139.940 137.842,140.781 138.722,144.069 141.778 C 144.441 142.123,144.745 142.661,144.745 142.974 C 144.745 143.287,144.846 143.544,144.970 143.544 C 145.604 143.545,147.751 145.889,147.928 146.773 C 148.035 147.309,148.309 147.748,148.536 147.748 C 148.763 147.748,148.950 147.849,148.951 147.973 C 148.952 148.097,149.425 148.520,150.002 148.913 C 150.579 149.305,151.051 149.880,151.051 150.189 C 151.051 150.685,151.359 150.881,152.001 150.795 C 152.110 150.780,152.330 151.136,152.490 151.585 C 152.649 152.035,153.334 152.808,154.011 153.303 C 154.687 153.799,155.244 154.365,155.248 154.563 C 155.252 154.760,156.066 155.747,157.057 156.757 C 158.048 157.766,158.859 158.780,158.859 159.009 C 158.859 159.239,159.501 160.076,160.285 160.869 C 161.070 161.663,162.320 163.027,163.063 163.900 C 164.010 165.011,164.579 165.445,164.964 165.348 C 165.345 165.252,165.463 165.339,165.350 165.633 C 165.260 165.867,165.442 166.193,165.756 166.361 C 166.069 166.528,166.368 166.959,166.420 167.318 C 166.542 168.146,167.172 168.375,167.357 167.659 C 167.468 167.231,167.505 167.259,167.533 167.793 C 167.552 168.164,167.399 168.471,167.192 168.473 C 166.940 168.476,166.922 168.550,167.139 168.698 C 167.316 168.820,167.548 169.155,167.655 169.444 C 167.836 169.936,168.564 170.111,170.120 170.037 C 170.450 170.021,170.552 170.078,170.345 170.164 C 169.768 170.404,169.900 171.616,170.571 172.222 C 170.901 172.521,171.171 172.904,171.171 173.073 C 171.171 173.242,171.619 173.796,172.167 174.303 C 172.715 174.810,173.251 175.462,173.359 175.751 C 173.467 176.040,173.762 176.276,174.015 176.276 C 174.268 176.276,174.474 176.434,174.474 176.627 C 174.474 176.820,175.470 177.941,176.688 179.120 C 177.905 180.298,178.993 181.554,179.106 181.909 C 179.219 182.265,179.980 183.128,180.797 183.827 C 181.614 184.526,182.282 185.350,182.282 185.659 C 182.282 185.969,182.417 186.138,182.583 186.036 C 182.748 185.934,182.883 186.029,182.883 186.247 C 182.883 186.466,183.221 186.898,183.634 187.208 C 184.047 187.518,184.384 187.934,184.384 188.133 C 184.384 188.332,184.857 188.749,185.435 189.060 C 186.061 189.397,186.486 189.854,186.486 190.188 C 186.486 190.497,186.873 191.111,187.345 191.552 C 187.818 191.993,188.300 192.656,188.417 193.024 C 188.540 193.412,188.873 193.694,189.209 193.694 C 189.535 193.694,189.790 193.899,189.790 194.162 C 189.790 194.419,189.925 194.547,190.090 194.444 C 190.255 194.342,190.390 194.395,190.390 194.561 C 190.390 194.728,190.728 195.228,191.141 195.674 C 191.554 196.120,191.894 196.701,191.896 196.966 C 191.901 197.386,191.938 197.390,192.192 196.997 C 192.431 196.627,192.484 196.658,192.488 197.171 C 192.490 197.520,192.810 197.966,193.210 198.181 C 193.605 198.392,194.101 198.888,194.312 199.282 C 194.523 199.677,194.808 200.000,194.946 200.000 C 195.083 200.000,195.195 200.203,195.195 200.450 C 195.195 200.698,195.297 200.879,195.420 200.853 C 195.947 200.742,196.697 201.307,196.697 201.816 C 196.697 202.119,196.853 202.463,197.043 202.581 C 197.279 202.727,197.308 202.660,197.136 202.374 C 196.935 202.041,197.005 202.047,197.464 202.402 C 198.562 203.253,198.837 203.600,198.650 203.902 C 198.547 204.068,198.670 204.204,198.924 204.204 C 199.363 204.204,200.491 205.911,200.362 206.381 C 200.328 206.505,200.604 206.610,200.976 206.613 C 201.370 206.617,202.026 207.056,202.550 207.664 L 203.448 208.709 206.211 208.709 C 207.730 208.709,209.053 208.838,209.151 208.996 C 209.249 209.154,209.527 209.207,209.770 209.114 C 210.013 209.020,210.583 209.054,211.037 209.187 C 211.786 209.408,211.724 209.448,210.360 209.623 C 209.535 209.729,214.294 209.837,220.937 209.863 C 230.987 209.902,232.988 209.842,232.858 209.503 C 232.630 208.909,234.849 208.714,241.907 208.711 C 245.839 208.710,248.041 208.595,248.254 208.382 C 248.489 208.147,248.637 208.147,248.783 208.382 C 249.284 209.193,250.885 208.719,252.006 207.428 C 252.614 206.729,257.040 202.199,261.841 197.362 C 270.914 188.222,271.652 187.390,271.364 186.639 C 271.105 185.965,262.462 185.963,262.462 186.637 C 262.462 187.014,261.828 187.087,258.559 187.087 C 255.259 187.087,254.655 187.016,254.655 186.629 C 254.655 186.224,252.923 186.173,239.756 186.195 C 231.562 186.208,224.822 186.178,224.778 186.127 C 224.632 185.960,224.334 158.586,224.329 144.920 C 224.327 137.501,224.250 131.506,224.158 131.597 C 224.067 131.688,223.932 138.086,223.859 145.813 C 223.737 158.572,223.677 159.934,223.199 160.637 C 222.909 161.064,222.605 162.221,222.523 163.213 L 222.372 165.015 220.612 165.106 C 218.429 165.219,217.718 164.710,217.718 163.034 C 217.718 161.614,217.356 161.380,216.092 161.979 C 214.716 162.632,214.242 163.244,214.691 163.785 C 215.188 164.384,214.780 165.766,214.107 165.766 C 213.808 165.766,213.518 165.904,213.461 166.072 C 213.345 166.422,211.718 165.771,211.714 165.373 C 211.713 165.239,211.586 165.207,211.432 165.302 C 211.278 165.398,211.079 165.356,210.989 165.210 C 210.733 164.796,209.309 165.184,209.309 165.668 C 209.309 165.907,209.192 166.029,209.049 165.941 C 208.906 165.852,208.553 166.041,208.265 166.359 C 207.886 166.778,207.503 166.891,206.884 166.767 C 206.049 166.600,206.034 166.619,206.296 167.532 C 206.606 168.614,206.416 168.790,206.015 167.793 L 205.744 167.117 205.725 167.793 C 205.701 168.648,204.731 168.702,203.866 167.897 C 203.278 167.349,203.275 167.313,203.803 167.016 C 204.333 166.719,204.331 166.698,203.772 166.483 C 203.411 166.344,203.144 166.393,203.071 166.613 C 203.006 166.808,202.728 166.963,202.452 166.957 C 201.997 166.949,202.000 166.912,202.477 166.549 C 203.452 165.809,202.880 164.895,201.426 164.869 C 201.303 164.867,201.201 165.894,201.201 167.152 C 201.201 169.430,201.198 169.439,200.450 169.296 C 200.038 169.217,199.700 169.205,199.700 169.268 C 199.700 169.332,200.038 169.513,200.450 169.670 C 200.863 169.827,201.201 170.150,201.201 170.388 C 201.201 170.626,201.363 170.875,201.562 170.941 C 201.842 171.035,201.842 171.111,201.562 171.284 C 201.363 171.407,201.201 171.364,201.201 171.189 C 201.201 171.014,200.873 170.871,200.472 170.871 C 200.071 170.871,199.558 170.702,199.333 170.495 C 199.108 170.289,198.659 169.971,198.336 169.790 C 198.012 169.608,197.705 169.096,197.652 168.652 C 197.590 168.136,197.202 167.614,196.575 167.203 C 196.036 166.850,195.416 166.156,195.197 165.662 C 194.978 165.167,194.322 164.346,193.738 163.838 C 193.154 163.329,192.331 162.522,191.909 162.045 C 190.538 160.496,190.319 160.324,189.917 160.478 C 189.674 160.571,189.581 160.473,189.676 160.223 C 189.762 159.999,189.586 159.520,189.286 159.157 C 188.038 157.654,187.129 156.757,186.853 156.757 C 186.691 156.757,186.397 156.364,186.198 155.884 C 185.999 155.405,185.550 154.937,185.199 154.845 C 184.084 154.554,184.160 154.823,185.656 156.474 C 186.083 156.944,186.116 157.184,185.838 157.794 C 185.434 158.679,184.985 158.519,184.985 157.490 C 184.985 157.087,184.850 156.757,184.685 156.757 C 184.520 156.757,184.384 156.892,184.384 157.057 C 184.384 157.222,184.182 157.357,183.934 157.357 C 183.335 157.357,183.357 158.158,183.965 158.498 C 184.620 158.865,184.385 159.786,183.559 160.092 C 183.151 160.242,182.883 160.225,182.883 160.050 C 182.883 159.891,183.086 159.760,183.333 159.760 C 183.584 159.760,183.784 159.493,183.784 159.159 C 183.784 158.825,183.584 158.559,183.333 158.559 C 182.663 158.559,182.788 157.848,183.614 156.956 C 184.509 155.991,184.141 155.639,183.096 156.461 C 182.252 157.124,180.783 157.264,180.776 156.682 C 180.773 156.405,180.704 156.413,180.514 156.713 C 180.318 157.022,180.111 157.041,179.648 156.793 C 179.172 156.538,179.002 156.564,178.868 156.912 C 178.774 157.157,178.431 157.357,178.105 157.357 C 177.457 157.357,177.015 157.822,177.423 158.075 C 177.564 158.162,177.645 158.543,177.603 158.921 C 177.562 159.300,177.516 159.849,177.503 160.143 C 177.489 160.436,177.140 160.804,176.727 160.961 C 176.314 161.118,175.976 161.452,175.976 161.704 C 175.976 161.956,175.792 162.162,175.567 162.162 C 175.293 162.162,175.206 162.409,175.302 162.913 C 175.457 163.725,174.072 164.042,173.382 163.352 C 172.668 162.638,170.614 163.359,170.468 164.375 C 170.393 164.892,170.352 164.640,170.376 163.814 L 170.420 162.312 168.769 162.353 C 167.734 162.378,167.538 162.344,168.243 162.260 C 168.863 162.186,169.369 161.999,169.369 161.844 C 169.369 161.689,169.667 161.562,170.030 161.562 C 170.559 161.562,170.616 161.487,170.315 161.186 C 170.079 160.950,169.277 160.839,168.153 160.888 C 166.477 160.961,166.366 160.924,166.362 160.288 C 166.355 159.325,165.907 158.657,165.675 159.263 C 165.411 159.950,164.058 159.467,163.389 158.447 C 162.805 157.557,163.321 156.311,164.114 156.698 C 164.279 156.779,164.245 156.663,164.039 156.440 C 163.747 156.126,163.584 156.116,163.303 156.396 C 162.777 156.922,162.462 156.838,162.462 156.171 C 162.462 155.471,161.693 154.977,160.918 155.179 C 160.608 155.260,160.360 155.168,160.360 154.972 C 160.360 154.778,160.516 154.716,160.707 154.833 C 160.916 154.962,160.972 154.916,160.850 154.718 C 160.738 154.537,160.109 154.418,159.452 154.455 C 158.755 154.494,158.258 154.386,158.258 154.197 C 158.258 153.760,156.372 151.952,155.917 151.952 C 155.718 151.952,155.556 151.677,155.556 151.342 C 155.556 151.006,155.353 150.654,155.105 150.559 C 154.857 150.464,154.655 150.195,154.655 149.961 C 154.655 149.728,154.317 149.383,153.904 149.195 C 153.491 149.006,153.149 148.705,153.143 148.525 C 153.115 147.590,150.661 145.991,149.550 146.183 C 149.248 146.235,149.282 146.150,149.651 145.924 C 149.955 145.738,150.533 145.649,150.935 145.726 C 151.499 145.834,151.781 145.670,152.174 145.005 C 152.779 143.979,153.026 143.927,153.249 144.778 C 153.369 145.236,153.253 145.454,152.833 145.564 C 152.199 145.730,152.019 146.850,152.628 146.842 C 153.380 146.833,153.699 146.367,153.909 144.970 C 154.107 143.647,154.185 143.544,154.989 143.544 C 155.744 143.544,155.856 143.432,155.856 142.679 C 155.856 142.204,156.059 141.647,156.306 141.441 C 156.554 141.236,156.757 140.690,156.757 140.228 C 156.757 139.767,156.926 139.311,157.132 139.214 C 157.432 139.074,157.432 139.004,157.132 138.864 C 156.549 138.592,156.690 138.138,157.357 138.138 C 157.911 138.138,157.958 138.338,157.958 140.708 C 157.958 142.122,158.075 143.206,158.218 143.118 C 158.514 142.935,159.276 143.734,159.555 144.520 C 159.782 145.161,160.661 145.221,160.661 144.595 C 160.661 144.314,160.944 144.144,161.411 144.144 C 162.157 144.144,162.162 144.124,162.162 141.441 C 162.162 138.939,162.118 138.739,161.562 138.739 C 160.928 138.739,160.753 138.302,161.261 137.988 C 161.731 137.698,161.618 135.556,161.111 135.135 C 160.863 134.930,160.661 134.575,160.661 134.348 C 160.661 134.120,160.357 133.911,159.985 133.883 C 159.613 133.854,159.080 133.816,158.800 133.798 C 158.205 133.760,157.680 133.333,158.228 133.333 C 158.455 133.333,158.562 133.013,158.503 132.508 C 158.438 131.939,158.246 131.695,157.886 131.723 C 157.599 131.745,157.438 131.643,157.530 131.496 C 157.621 131.348,157.469 131.140,157.191 131.033 C 156.756 130.867,156.785 130.785,157.397 130.445 C 157.788 130.229,157.939 130.047,157.733 130.041 C 157.526 130.035,157.357 129.700,157.357 129.297 C 157.357 128.894,157.222 128.480,157.057 128.378 C 156.892 128.276,156.755 127.964,156.752 127.685 C 156.744 126.784,156.208 126.195,155.872 126.718 C 155.716 126.961,155.480 127.044,155.347 126.902 C 155.214 126.760,155.274 126.584,155.480 126.510 C 156.023 126.317,155.943 125.526,155.380 125.526 C 155.119 125.526,154.958 125.365,155.024 125.169 C 155.209 124.612,155.856 124.520,155.856 125.050 C 155.856 125.312,156.059 125.526,156.306 125.526 C 156.554 125.526,156.757 125.661,156.757 125.826 C 156.757 125.991,156.908 126.126,157.094 126.126 C 157.328 126.126,157.318 125.990,157.060 125.679 C 156.598 125.122,156.874 124.324,157.530 124.324 C 157.857 124.324,157.961 124.485,157.839 124.803 C 157.716 125.122,157.856 125.333,158.257 125.438 C 158.588 125.525,158.859 125.715,158.859 125.861 C 158.859 126.007,159.062 126.126,159.309 126.126 C 159.996 126.126,159.851 125.724,158.872 124.911 C 158.383 124.506,157.978 124.007,157.971 123.802 C 157.952 123.260,157.049 122.276,155.931 121.580 C 155.394 121.245,154.955 120.853,154.955 120.708 C 154.955 119.725,152.063 117.807,151.473 118.397 C 151.041 118.829,150.450 118.610,150.450 118.018 C 150.450 117.618,150.651 117.417,151.051 117.417 C 152.169 117.417,150.208 114.629,149.024 114.535 C 148.209 114.469,148.048 114.404,148.048 114.136 C 148.048 113.983,148.259 113.814,148.516 113.761 C 148.869 113.687,148.715 113.371,147.886 112.468 C 146.492 110.950,145.623 109.732,145.804 109.551 C 145.882 109.474,145.607 109.230,145.195 109.009 C 144.782 108.788,144.444 108.521,144.444 108.416 C 144.444 108.311,143.573 107.337,142.507 106.250 C 141.442 105.163,140.654 104.191,140.756 104.089 C 140.858 103.987,140.783 103.904,140.591 103.904 C 140.398 103.904,140.240 103.706,140.240 103.464 C 140.240 103.222,139.949 102.868,139.593 102.678 C 138.762 102.233,136.637 100.070,136.637 99.670 C 136.637 99.502,136.519 99.437,136.374 99.526 C 136.230 99.615,135.777 99.378,135.368 98.999 C 134.682 98.364,115.652 97.734,116.286 98.368 M114.853 107.588 C 114.828 109.529,114.720 111.206,114.611 111.315 C 114.503 111.423,114.430 109.361,114.449 106.732 C 114.468 104.065,114.575 102.418,114.690 103.005 C 114.804 103.585,114.877 105.647,114.853 107.588 M114.891 120.502 C 114.925 125.164,114.848 129.520,114.719 130.180 C 114.583 130.872,114.469 127.188,114.449 121.496 C 114.430 116.060,114.507 111.705,114.621 111.818 C 114.735 111.932,114.856 115.840,114.891 120.502 M153.241 120.345 C 153.409 121.224,153.027 121.670,152.334 121.404 C 152.035 121.289,152.005 121.148,152.232 120.921 C 152.408 120.745,152.553 120.357,152.553 120.060 C 152.553 119.215,153.065 119.427,153.241 120.345 M154.655 122.097 C 154.655 122.627,154.008 122.535,153.823 121.978 C 153.757 121.782,153.918 121.622,154.179 121.622 C 154.441 121.622,154.655 121.836,154.655 122.097 M157.537 126.347 C 157.175 126.709,157.373 127.027,157.958 127.027 C 158.288 127.027,158.559 126.906,158.559 126.759 C 158.559 126.421,157.777 126.106,157.537 126.347 M159.384 126.954 C 159.095 127.018,158.859 127.196,158.859 127.349 C 158.859 127.733,159.679 127.701,159.922 127.307 C 160.176 126.898,160.040 126.808,159.384 126.954 M167.868 136.186 C 167.868 136.434,168.003 136.637,168.168 136.637 C 168.333 136.637,168.468 136.434,168.468 136.186 C 168.468 135.938,168.333 135.736,168.168 135.736 C 168.003 135.736,167.868 135.938,167.868 136.186 M146.634 140.165 C 146.357 140.372,145.583 140.518,144.913 140.490 L 143.694 140.440 144.819 140.322 C 145.571 140.243,146.055 139.997,146.278 139.581 C 146.545 139.082,146.663 139.041,146.874 139.374 C 147.047 139.649,146.966 139.917,146.634 140.165 M148.649 141.424 C 148.649 142.249,148.134 142.464,147.773 141.790 C 147.444 141.175,147.612 140.841,148.248 140.841 C 148.468 140.841,148.649 141.103,148.649 141.424 M151.096 144.595 C 151.096 144.752,150.951 144.928,150.773 144.987 C 150.596 145.047,150.450 144.870,150.450 144.595 C 150.450 144.319,150.596 144.143,150.773 144.202 C 150.951 144.261,151.096 144.438,151.096 144.595 M114.626 146.321 C 114.555 146.693,114.496 146.389,114.496 145.646 C 114.496 144.902,114.555 144.598,114.626 144.970 C 114.698 145.342,114.698 145.950,114.626 146.321 M154.655 145.495 C 154.655 145.743,154.790 145.946,154.955 145.946 C 155.120 145.946,155.255 145.743,155.255 145.495 C 155.255 145.248,155.120 145.045,154.955 145.045 C 154.790 145.045,154.655 145.248,154.655 145.495 M160.852 146.698 C 160.757 146.945,160.422 147.147,160.106 147.147 C 158.953 147.147,158.687 147.986,159.555 148.892 C 160.228 149.595,160.276 149.757,159.887 150.007 C 159.495 150.260,159.517 150.353,160.046 150.678 C 160.585 151.010,160.661 150.984,160.661 150.467 C 160.661 150.028,160.936 149.825,161.734 149.676 C 162.500 149.532,162.715 149.382,162.485 149.152 C 162.307 148.974,162.162 148.586,162.162 148.288 C 162.162 147.991,162.027 147.748,161.862 147.748 C 161.697 147.748,161.562 147.485,161.562 147.165 C 161.562 146.424,161.079 146.107,160.852 146.698 M153.754 147.623 C 153.754 148.153,154.400 148.061,154.586 147.504 C 154.651 147.308,154.491 147.147,154.229 147.147 C 153.968 147.147,153.754 147.361,153.754 147.623 M154.795 148.664 C 154.510 149.125,154.901 149.423,155.286 149.038 C 155.502 148.822,155.507 148.654,155.302 148.527 C 155.134 148.424,154.906 148.485,154.795 148.664 M152.553 149.435 C 152.553 149.683,152.417 149.802,152.252 149.700 C 152.087 149.598,151.952 149.311,151.952 149.064 C 151.952 148.816,152.087 148.697,152.252 148.799 C 152.417 148.901,152.553 149.187,152.553 149.435 M179.580 148.897 C 179.580 149.033,179.917 149.462,180.330 149.850 C 180.743 150.238,181.081 150.718,181.081 150.916 C 181.081 151.453,181.888 152.047,182.116 151.678 C 182.360 151.282,181.647 150.150,181.153 150.150 C 180.941 150.150,180.614 149.812,180.426 149.399 C 180.099 148.682,179.580 148.374,179.580 148.897 M166.667 150.450 C 166.667 150.784,166.867 151.051,167.117 151.051 C 167.367 151.051,167.568 150.784,167.568 150.450 C 167.568 150.117,167.367 149.850,167.117 149.850 C 166.867 149.850,166.667 150.117,166.667 150.450 M154.655 151.201 C 154.655 152.018,154.629 152.038,153.934 151.772 C 153.574 151.634,153.536 151.458,153.770 151.021 C 154.199 150.219,154.655 150.312,154.655 151.201 M179.580 151.219 C 179.580 151.655,179.710 151.907,179.880 151.802 C 180.045 151.700,180.180 151.354,180.180 151.033 C 180.180 150.713,180.045 150.450,179.880 150.450 C 179.715 150.450,179.580 150.796,179.580 151.219 M162.213 153.323 C 162.284 153.939,162.524 154.239,163.063 154.388 L 163.814 154.595 162.988 154.625 C 162.534 154.641,162.162 154.806,162.162 154.990 C 162.162 155.178,162.427 155.256,162.767 155.167 C 163.157 155.065,163.473 155.199,163.659 155.547 C 163.818 155.843,164.173 156.172,164.449 156.278 C 164.888 156.447,164.899 156.406,164.532 155.946 C 164.257 155.601,164.411 155.650,164.980 156.089 C 165.457 156.456,166.103 156.757,166.416 156.757 C 167.161 156.757,167.443 157.534,166.925 158.161 C 166.556 158.609,166.581 158.622,167.192 158.297 C 167.564 158.099,167.868 157.754,167.868 157.529 C 167.868 157.305,168.200 157.039,168.606 156.937 C 169.685 156.666,169.567 155.091,168.468 155.099 C 167.792 155.105,167.718 154.986,167.718 153.910 C 167.718 152.489,166.854 152.033,166.384 153.206 C 166.176 153.726,166.099 153.770,166.085 153.378 C 166.072 153.011,165.818 152.852,165.240 152.850 C 164.786 152.848,163.897 152.761,163.264 152.656 C 162.140 152.470,162.116 152.485,162.213 153.323 M169.162 153.644 C 168.768 154.672,169.479 155.101,171.728 155.193 C 174.004 155.287,174.058 155.260,173.545 154.301 C 173.271 153.789,173.025 153.717,172.078 153.868 C 171.262 153.999,170.836 153.923,170.569 153.602 C 170.078 153.010,169.397 153.031,169.162 153.644 M181.682 153.604 C 181.682 153.851,181.471 154.054,181.214 154.054 C 180.956 154.054,180.824 154.181,180.920 154.337 C 181.020 154.499,181.467 154.405,181.969 154.117 C 182.556 153.780,182.727 153.540,182.488 153.389 C 181.941 153.041,181.682 153.110,181.682 153.604 M183.519 153.945 C 183.160 154.351,183.176 154.400,183.644 154.309 C 183.941 154.251,184.241 154.035,184.309 153.829 C 184.482 153.310,184.021 153.378,183.519 153.945 M181.081 157.662 C 180.681 157.925,180.681 157.991,181.081 158.254 C 181.584 158.584,181.372 158.651,180.674 158.384 C 180.095 158.161,180.382 157.356,181.038 157.362 C 181.467 157.366,181.472 157.405,181.081 157.662 M187.749 159.568 C 187.866 159.751,187.745 160.022,187.482 160.169 C 187.148 160.356,186.921 160.290,186.730 159.948 C 186.580 159.679,186.261 159.459,186.021 159.459 C 185.782 159.459,185.586 159.314,185.586 159.135 C 185.586 158.724,187.450 159.097,187.749 159.568 M185.736 160.961 C 185.590 161.196,185.418 161.213,185.217 161.013 C 185.052 160.848,185.015 160.554,185.135 160.360 C 185.280 160.125,185.453 160.108,185.653 160.308 C 185.819 160.473,185.856 160.767,185.736 160.961 M165.171 161.848 C 164.964 162.347,164.676 162.681,164.530 162.591 C 164.093 162.321,164.230 161.562,164.715 161.562 C 164.962 161.562,165.165 161.336,165.165 161.061 C 165.165 160.786,165.251 160.646,165.356 160.751 C 165.461 160.856,165.377 161.350,165.171 161.848 M201.079 161.216 C 200.859 161.572,201.171 162.462,201.516 162.462 C 201.986 162.462,202.049 162.006,201.654 161.465 C 201.434 161.165,201.179 161.054,201.079 161.216 M190.390 161.825 C 190.390 162.219,189.614 162.787,189.387 162.560 C 188.976 162.149,189.213 161.562,189.790 161.562 C 190.120 161.562,190.390 161.680,190.390 161.825 M166.667 162.312 C 166.667 162.560,166.464 162.763,166.216 162.763 C 165.968 162.763,165.766 162.560,165.766 162.312 C 165.766 162.065,165.968 161.862,166.216 161.862 C 166.464 161.862,166.667 162.065,166.667 162.312 M191.522 163.063 C 191.143 163.670,190.691 163.866,190.691 163.423 C 190.691 163.111,191.341 162.462,191.654 162.462 C 191.788 162.462,191.728 162.733,191.522 163.063 M165.766 163.327 C 165.766 163.699,164.886 164.386,164.677 164.177 C 164.485 163.985,165.184 163.093,165.541 163.074 C 165.664 163.068,165.766 163.182,165.766 163.327 M201.201 163.814 C 201.201 164.586,201.404 164.698,202.228 164.382 C 203.027 164.075,202.816 163.063,201.952 163.063 C 201.351 163.063,201.201 163.213,201.201 163.814 M209.570 166.667 C 209.687 166.667,209.803 166.940,209.828 167.274 C 209.853 167.608,209.747 167.802,209.591 167.706 C 209.436 167.611,209.309 167.675,209.309 167.850 C 209.309 168.025,209.116 168.168,208.879 168.168 C 208.594 168.168,208.457 167.859,208.475 167.253 C 208.493 166.589,208.619 166.383,208.930 166.502 C 209.165 166.593,209.454 166.667,209.570 166.667 M204.880 166.866 C 204.370 167.071,204.402 167.868,204.920 167.868 C 205.148 167.868,205.406 167.598,205.492 167.267 C 205.652 166.658,205.554 166.594,204.880 166.866 M171.171 168.168 C 171.171 168.333,170.968 168.468,170.721 168.468 C 170.473 168.468,170.270 168.333,170.270 168.168 C 170.270 168.003,170.473 167.868,170.721 167.868 C 170.968 167.868,171.171 168.003,171.171 168.168 M196.096 168.293 C 196.096 168.527,196.265 168.787,196.471 168.870 C 196.710 168.967,196.669 169.030,196.358 169.045 C 195.798 169.073,195.102 168.362,195.398 168.065 C 195.734 167.729,196.096 167.847,196.096 168.293 M172.072 169.219 C 172.072 169.467,171.937 169.670,171.772 169.670 C 171.607 169.670,171.471 169.467,171.471 169.219 C 171.471 168.971,171.607 168.769,171.772 168.769 C 171.937 168.769,172.072 168.971,172.072 169.219 M114.196 187.387 C 114.196 188.131,114.254 188.435,114.326 188.063 C 114.398 187.691,114.398 187.083,114.326 186.712 C 114.254 186.340,114.196 186.644,114.196 187.387 M114.225 195.495 C 114.225 197.230,114.275 197.939,114.336 197.072 C 114.396 196.205,114.396 194.786,114.336 193.919 C 114.275 193.052,114.225 193.761,114.225 195.495 M219.219 209.126 C 219.219 209.191,218.756 209.298,218.189 209.364 C 217.623 209.430,217.225 209.377,217.306 209.247 C 217.451 209.011,219.219 208.900,219.219 209.126 " stroke="none" fill="#0d5fee" fill-rule="evenodd"></path><path id="path2" d="M203.342 99.146 C 202.456 99.254,201.553 99.524,201.337 99.746 C 200.890 100.205,200.701 117.522,201.068 124.354 C 201.278 128.277,200.804 132.947,200.281 132.100 C 200.136 131.867,200.053 133.138,200.087 135.060 C 200.119 136.913,200.229 138.195,200.331 137.909 C 200.440 137.602,200.674 138.316,200.898 139.638 C 201.392 142.548,201.151 147.471,200.463 148.521 C 199.889 149.398,199.801 160.845,200.368 161.033 C 200.532 161.088,200.753 161.934,200.859 162.913 C 201.041 164.604,201.100 164.708,202.027 164.973 C 203.104 165.281,203.290 165.932,202.477 166.549 C 202.000 166.912,201.997 166.949,202.452 166.957 C 202.728 166.963,203.006 166.808,203.071 166.613 C 203.144 166.393,203.411 166.344,203.772 166.483 C 204.331 166.698,204.333 166.719,203.803 167.016 C 203.275 167.313,203.278 167.349,203.866 167.897 C 204.731 168.702,205.701 168.648,205.725 167.793 L 205.744 167.117 206.015 167.793 C 206.416 168.790,206.606 168.614,206.296 167.532 C 206.034 166.619,206.049 166.600,206.884 166.767 C 207.503 166.891,207.886 166.778,208.265 166.359 C 208.553 166.041,208.906 165.852,209.049 165.941 C 209.192 166.029,209.309 165.907,209.309 165.668 C 209.309 165.184,210.733 164.796,210.989 165.210 C 211.079 165.356,211.278 165.398,211.432 165.302 C 211.586 165.207,211.713 165.239,211.714 165.373 C 211.718 165.771,213.345 166.422,213.461 166.072 C 213.518 165.904,213.808 165.766,214.107 165.766 C 214.780 165.766,215.188 164.384,214.691 163.785 C 214.242 163.244,214.716 162.632,216.092 161.979 C 217.356 161.380,217.718 161.614,217.718 163.034 C 217.718 164.710,218.429 165.219,220.612 165.106 L 222.372 165.015 222.523 163.213 C 222.608 162.188,222.909 161.063,223.221 160.604 C 223.722 159.865,223.776 158.868,223.856 148.892 C 223.997 131.087,224.156 130.408,224.333 146.847 C 224.449 157.663,224.496 152.948,224.487 131.167 C 224.476 102.607,224.433 99.980,223.978 99.525 C 223.448 98.995,207.047 98.694,203.342 99.146 M148.048 114.082 C 148.048 114.229,148.262 114.432,148.523 114.532 C 149.194 114.790,149.249 114.770,149.249 114.264 C 149.249 114.014,148.982 113.814,148.649 113.814 C 148.318 113.814,148.048 113.934,148.048 114.082 M149.556 114.643 C 149.560 114.765,150.033 115.269,150.607 115.763 C 151.777 116.769,151.951 117.417,151.051 117.417 C 150.651 117.417,150.450 117.618,150.450 118.018 C 150.450 118.610,151.041 118.829,151.473 118.397 C 151.879 117.990,152.697 118.162,153.245 118.769 L 153.788 119.369 153.487 118.769 C 153.215 118.226,152.857 117.771,151.319 116.016 C 150.620 115.218,149.548 114.383,149.556 114.643 M152.553 120.060 C 152.553 120.357,152.408 120.745,152.232 120.921 C 152.005 121.148,152.035 121.289,152.334 121.404 C 153.027 121.670,153.409 121.224,153.241 120.345 C 153.065 119.427,152.553 119.215,152.553 120.060 M153.823 121.978 C 154.008 122.535,154.655 122.627,154.655 122.097 C 154.655 121.836,154.441 121.622,154.179 121.622 C 153.918 121.622,153.757 121.782,153.823 121.978 M157.982 123.799 C 157.969 124.088,157.751 124.324,157.498 124.324 C 156.869 124.324,156.608 125.134,157.060 125.679 C 157.318 125.990,157.328 126.126,157.094 126.126 C 156.908 126.126,156.757 125.991,156.757 125.826 C 156.757 125.661,156.554 125.526,156.306 125.526 C 156.059 125.526,155.856 125.312,155.856 125.050 C 155.856 124.520,155.209 124.612,155.024 125.169 C 154.958 125.365,155.119 125.526,155.380 125.526 C 155.943 125.526,156.023 126.317,155.480 126.510 C 155.274 126.584,155.214 126.760,155.347 126.902 C 155.480 127.044,155.716 126.961,155.872 126.718 C 156.208 126.195,156.744 126.784,156.752 127.685 C 156.755 127.964,156.892 128.276,157.057 128.378 C 157.222 128.480,157.357 128.894,157.357 129.297 C 157.357 129.700,157.526 130.035,157.733 130.041 C 157.939 130.047,157.788 130.229,157.397 130.445 C 156.785 130.785,156.756 130.867,157.191 131.033 C 157.469 131.140,157.621 131.348,157.530 131.496 C 157.438 131.643,157.599 131.745,157.886 131.723 C 158.246 131.695,158.438 131.939,158.503 132.508 C 158.562 133.013,158.455 133.333,158.228 133.333 C 157.680 133.333,158.205 133.760,158.800 133.798 C 159.080 133.816,159.613 133.854,159.985 133.883 C 160.357 133.911,160.661 134.120,160.661 134.348 C 160.661 134.575,160.863 134.930,161.111 135.135 C 161.618 135.556,161.731 137.698,161.261 137.988 C 160.753 138.302,160.928 138.739,161.562 138.739 C 162.118 138.739,162.162 138.939,162.162 141.441 C 162.162 144.124,162.157 144.144,161.411 144.144 C 160.944 144.144,160.661 144.314,160.661 144.595 C 160.661 145.221,159.782 145.161,159.555 144.520 C 159.276 143.734,158.514 142.935,158.218 143.118 C 158.075 143.206,157.958 142.122,157.958 140.708 C 157.958 138.338,157.911 138.138,157.357 138.138 C 156.690 138.138,156.549 138.592,157.132 138.864 C 157.432 139.004,157.432 139.074,157.132 139.214 C 156.926 139.311,156.757 139.767,156.757 140.228 C 156.757 140.690,156.554 141.236,156.306 141.441 C 156.059 141.647,155.856 142.204,155.856 142.679 C 155.856 143.432,155.744 143.544,154.989 143.544 C 154.185 143.544,154.107 143.647,153.909 144.970 C 153.699 146.367,153.380 146.833,152.628 146.842 C 152.019 146.850,152.199 145.730,152.833 145.564 C 153.253 145.454,153.369 145.236,153.249 144.778 C 153.026 143.927,152.779 143.979,152.174 145.005 C 151.781 145.670,151.499 145.834,150.935 145.726 C 150.533 145.649,149.955 145.738,149.651 145.924 C 149.282 146.150,149.248 146.235,149.550 146.183 C 150.661 145.991,153.115 147.590,153.143 148.525 C 153.149 148.705,153.491 149.006,153.904 149.195 C 154.317 149.383,154.655 149.728,154.655 149.961 C 154.655 150.195,154.857 150.464,155.105 150.559 C 155.353 150.654,155.556 151.006,155.556 151.342 C 155.556 151.677,155.732 151.952,155.947 151.952 C 156.397 151.952,158.258 153.785,158.258 154.227 C 158.258 154.389,158.796 154.492,159.452 154.455 C 160.109 154.418,160.738 154.537,160.850 154.718 C 160.972 154.916,160.916 154.962,160.707 154.833 C 160.516 154.716,160.360 154.778,160.360 154.972 C 160.360 155.168,160.608 155.260,160.918 155.179 C 161.693 154.977,162.462 155.471,162.462 156.171 C 162.462 156.838,162.777 156.922,163.303 156.396 C 163.584 156.116,163.747 156.126,164.039 156.440 C 164.245 156.663,164.279 156.779,164.114 156.698 C 163.321 156.311,162.805 157.557,163.389 158.447 C 164.058 159.467,165.411 159.950,165.675 159.263 C 165.907 158.657,166.355 159.325,166.362 160.288 C 166.366 160.924,166.477 160.961,168.153 160.888 C 169.277 160.839,170.079 160.950,170.315 161.186 C 170.616 161.487,170.559 161.562,170.030 161.562 C 169.667 161.562,169.369 161.689,169.369 161.844 C 169.369 161.999,168.863 162.186,168.243 162.260 C 167.538 162.344,167.734 162.378,168.769 162.353 L 170.420 162.312 170.376 163.814 C 170.352 164.640,170.393 164.892,170.468 164.375 C 170.614 163.359,172.668 162.638,173.382 163.352 C 174.072 164.042,175.457 163.725,175.302 162.913 C 175.206 162.409,175.293 162.162,175.567 162.162 C 175.792 162.162,175.976 161.956,175.976 161.704 C 175.976 161.452,176.314 161.118,176.727 160.961 C 177.140 160.804,177.489 160.436,177.503 160.143 C 177.516 159.849,177.562 159.300,177.603 158.921 C 177.645 158.543,177.564 158.162,177.423 158.075 C 177.015 157.822,177.457 157.357,178.105 157.357 C 178.431 157.357,178.774 157.157,178.868 156.912 C 179.002 156.564,179.172 156.538,179.648 156.793 C 180.111 157.041,180.318 157.022,180.514 156.713 C 180.704 156.413,180.773 156.405,180.776 156.682 C 180.783 157.264,182.252 157.124,183.096 156.461 C 184.141 155.639,184.509 155.991,183.614 156.956 C 182.788 157.848,182.663 158.559,183.333 158.559 C 183.584 158.559,183.784 158.825,183.784 159.159 C 183.784 159.493,183.584 159.760,183.333 159.760 C 183.086 159.760,182.883 159.891,182.883 160.050 C 182.883 160.225,183.151 160.242,183.559 160.092 C 184.385 159.786,184.620 158.865,183.965 158.498 C 183.357 158.158,183.335 157.357,183.934 157.357 C 184.182 157.357,184.384 157.222,184.384 157.057 C 184.384 156.892,184.520 156.757,184.685 156.757 C 184.850 156.757,184.985 157.087,184.985 157.490 C 184.985 158.519,185.434 158.679,185.838 157.794 C 186.116 157.184,186.083 156.944,185.656 156.474 C 184.129 154.790,184.068 154.567,185.210 154.844 L 186.036 155.044 185.285 154.420 C 184.820 154.034,184.426 153.902,184.249 154.075 C 184.092 154.229,183.779 154.354,183.552 154.354 C 183.230 154.354,183.243 154.251,183.615 153.880 C 184.121 153.373,183.963 152.707,183.416 153.045 C 183.237 153.155,183.171 153.115,183.270 152.956 C 183.369 152.796,183.205 152.293,182.906 151.837 C 182.447 151.137,182.333 151.087,182.169 151.514 C 181.958 152.064,181.081 151.614,181.081 150.956 C 181.081 150.778,180.719 150.256,180.277 149.794 C 179.835 149.333,179.572 148.856,179.693 148.736 C 179.814 148.615,180.038 148.715,180.192 148.958 C 180.436 149.344,180.469 149.343,180.454 148.949 C 180.445 148.701,179.781 147.958,178.979 147.297 C 178.177 146.637,177.511 145.933,177.499 145.734 C 177.487 145.535,176.661 144.521,175.663 143.482 C 174.665 142.442,173.449 141.172,172.960 140.659 C 172.472 140.146,172.072 139.549,172.072 139.332 C 172.072 139.116,171.992 139.019,171.895 139.116 C 171.797 139.214,171.268 138.831,170.718 138.266 C 170.169 137.700,169.589 137.237,169.429 137.237 C 169.270 137.237,169.047 136.933,168.934 136.562 C 168.809 136.152,168.667 136.034,168.573 136.261 C 168.307 136.906,167.789 136.671,167.968 135.986 C 168.096 135.496,167.773 134.937,166.652 133.710 C 165.834 132.816,165.165 131.959,165.165 131.808 C 165.165 131.656,164.954 131.532,164.697 131.532 C 164.439 131.532,164.312 131.396,164.414 131.231 C 164.516 131.066,164.018 130.344,163.306 129.627 C 162.594 128.910,161.571 127.775,161.032 127.104 C 160.314 126.210,159.893 125.926,159.456 126.040 C 159.127 126.126,158.859 126.061,158.859 125.896 C 158.859 125.731,158.578 125.522,158.236 125.433 C 157.703 125.293,157.662 125.178,157.955 124.630 C 158.143 124.278,158.232 123.829,158.151 123.632 C 158.071 123.435,157.995 123.510,157.982 123.799 M158.559 126.759 C 158.559 126.906,158.288 127.027,157.958 127.027 C 157.373 127.027,157.175 126.709,157.537 126.347 C 157.777 126.106,158.559 126.421,158.559 126.759 M159.922 127.307 C 159.679 127.701,158.859 127.733,158.859 127.349 C 158.859 127.196,159.095 127.018,159.384 126.954 C 160.040 126.808,160.176 126.898,159.922 127.307 M114.204 133.033 C 114.204 133.941,114.260 134.313,114.329 133.859 C 114.398 133.405,114.398 132.661,114.329 132.207 C 114.260 131.753,114.204 132.125,114.204 133.033 M138.535 137.274 C 138.616 137.584,138.560 137.838,138.410 137.838 C 138.261 137.838,138.138 139.662,138.138 141.892 C 138.138 145.371,138.205 145.946,138.608 145.946 C 139.178 145.946,139.187 139.650,138.617 139.277 C 138.391 139.128,138.406 138.952,138.666 138.691 C 138.871 138.486,139.039 138.061,139.039 137.746 C 139.039 137.360,139.186 137.229,139.489 137.346 C 139.737 137.441,139.940 137.404,139.940 137.263 C 139.940 137.122,139.591 136.940,139.164 136.859 C 138.519 136.735,138.413 136.806,138.535 137.274 M146.278 139.581 C 146.055 139.997,145.571 140.243,144.819 140.322 L 143.694 140.440 144.913 140.490 C 146.320 140.548,147.273 140.006,146.874 139.374 C 146.663 139.041,146.545 139.082,146.278 139.581 M147.658 141.030 C 147.375 141.313,148.032 142.387,148.363 142.183 C 148.796 141.915,148.704 140.841,148.248 140.841 C 148.028 140.841,147.763 140.926,147.658 141.030 M150.450 144.595 C 150.450 144.870,150.596 145.047,150.773 144.987 C 150.951 144.928,151.096 144.752,151.096 144.595 C 151.096 144.438,150.951 144.261,150.773 144.202 C 150.596 144.143,150.450 144.319,150.450 144.595 M146.847 145.124 C 146.847 145.238,147.128 145.773,147.471 146.314 C 147.997 147.144,148.062 147.180,147.889 146.547 C 147.695 145.837,146.847 144.679,146.847 145.124 M155.255 145.495 C 155.255 145.743,155.120 145.946,154.955 145.946 C 154.790 145.946,154.655 145.743,154.655 145.495 C 154.655 145.248,154.790 145.045,154.955 145.045 C 155.120 145.045,155.255 145.248,155.255 145.495 M138.508 147.147 C 138.508 147.725,138.570 147.962,138.645 147.673 C 138.721 147.384,138.721 146.911,138.645 146.622 C 138.570 146.333,138.508 146.569,138.508 147.147 M161.562 147.165 C 161.562 147.485,161.697 147.748,161.862 147.748 C 162.027 147.748,162.162 147.991,162.162 148.288 C 162.162 148.586,162.307 148.974,162.485 149.152 C 162.715 149.382,162.500 149.532,161.734 149.676 C 160.936 149.825,160.661 150.028,160.661 150.467 C 160.661 150.984,160.585 151.010,160.046 150.678 C 159.517 150.353,159.495 150.260,159.887 150.007 C 160.276 149.757,160.228 149.595,159.555 148.892 C 158.687 147.986,158.953 147.147,160.106 147.147 C 160.422 147.147,160.757 146.945,160.852 146.698 C 161.079 146.107,161.562 146.424,161.562 147.165 M154.586 147.504 C 154.400 148.061,153.754 148.153,153.754 147.623 C 153.754 147.361,153.968 147.147,154.229 147.147 C 154.491 147.147,154.651 147.308,154.586 147.504 M155.286 149.038 C 154.901 149.423,154.510 149.125,154.795 148.664 C 154.906 148.485,155.134 148.424,155.302 148.527 C 155.507 148.654,155.502 148.822,155.286 149.038 M151.952 149.064 C 151.952 149.311,152.087 149.598,152.252 149.700 C 152.417 149.802,152.553 149.683,152.553 149.435 C 152.553 149.187,152.417 148.901,152.252 148.799 C 152.087 148.697,151.952 148.816,151.952 149.064 M114.234 153.604 C 114.235 156.081,114.281 157.055,114.338 155.767 C 114.394 154.479,114.394 152.452,114.337 151.263 C 114.280 150.073,114.234 151.126,114.234 153.604 M167.568 150.450 C 167.568 150.784,167.367 151.051,167.117 151.051 C 166.867 151.051,166.667 150.784,166.667 150.450 C 166.667 150.117,166.867 149.850,167.117 149.850 C 167.367 149.850,167.568 150.117,167.568 150.450 M153.770 151.021 C 153.536 151.458,153.574 151.634,153.934 151.772 C 154.629 152.038,154.655 152.018,154.655 151.201 C 154.655 150.312,154.199 150.219,153.770 151.021 M180.180 151.033 C 180.180 151.354,180.045 151.700,179.880 151.802 C 179.710 151.907,179.580 151.655,179.580 151.219 C 179.580 150.796,179.715 150.450,179.880 150.450 C 180.045 150.450,180.180 150.713,180.180 151.033 M165.240 152.850 C 165.818 152.852,166.072 153.011,166.085 153.378 C 166.099 153.770,166.176 153.726,166.384 153.206 C 166.854 152.033,167.718 152.489,167.718 153.910 C 167.718 154.986,167.792 155.105,168.468 155.099 C 169.567 155.091,169.685 156.666,168.606 156.937 C 168.200 157.039,167.868 157.305,167.868 157.529 C 167.868 157.754,167.564 158.099,167.192 158.297 C 166.581 158.622,166.556 158.609,166.925 158.161 C 167.443 157.534,167.161 156.757,166.416 156.757 C 166.103 156.757,165.457 156.456,164.980 156.089 C 164.411 155.650,164.257 155.601,164.532 155.946 C 164.899 156.406,164.888 156.447,164.449 156.278 C 164.173 156.172,163.818 155.843,163.659 155.547 C 163.473 155.199,163.157 155.065,162.767 155.167 C 162.427 155.256,162.162 155.178,162.162 154.990 C 162.162 154.806,162.534 154.641,162.988 154.625 L 163.814 154.595 163.063 154.388 C 161.640 153.995,161.823 152.418,163.264 152.656 C 163.897 152.761,164.786 152.848,165.240 152.850 M138.649 154.615 C 138.517 155.501,138.483 156.301,138.574 156.391 C 138.932 156.749,139.069 156.151,138.981 154.613 L 138.889 153.003 138.649 154.615 M170.569 153.602 C 170.836 153.923,171.262 153.999,172.078 153.868 C 173.151 153.696,173.874 154.192,173.874 155.099 C 173.874 155.544,169.577 155.097,169.278 154.620 C 168.609 153.555,169.770 152.639,170.569 153.602 M182.488 153.389 C 182.727 153.540,182.556 153.780,181.969 154.117 C 181.467 154.405,181.020 154.499,180.920 154.337 C 180.824 154.181,180.956 154.054,181.214 154.054 C 181.471 154.054,181.682 153.851,181.682 153.604 C 181.682 153.110,181.941 153.041,182.488 153.389 M186.241 156.006 C 186.429 156.419,186.699 156.757,186.842 156.757 C 186.984 156.757,186.880 156.419,186.609 156.006 C 186.338 155.593,186.068 155.255,186.008 155.255 C 185.948 155.255,186.053 155.593,186.241 156.006 M180.381 157.783 C 180.292 158.017,180.423 158.287,180.674 158.384 C 181.372 158.651,181.584 158.584,181.081 158.254 C 180.681 157.991,180.681 157.925,181.081 157.662 C 181.472 157.405,181.467 157.366,181.038 157.362 C 180.767 157.359,180.471 157.549,180.381 157.783 M158.148 158.160 C 158.336 158.297,158.563 158.679,158.654 159.009 C 158.785 159.483,158.808 159.456,158.764 158.882 C 158.734 158.482,158.506 158.100,158.258 158.034 C 157.961 157.953,157.923 157.996,158.148 158.160 M185.586 159.135 C 185.586 159.314,185.782 159.459,186.021 159.459 C 186.261 159.459,186.580 159.679,186.730 159.948 C 186.921 160.290,187.148 160.356,187.482 160.169 C 187.745 160.022,187.866 159.751,187.749 159.568 C 187.450 159.097,185.586 158.724,185.586 159.135 M114.196 160.961 C 114.196 161.704,114.254 162.008,114.326 161.637 C 114.398 161.265,114.398 160.657,114.326 160.285 C 114.254 159.914,114.196 160.218,114.196 160.961 M185.135 160.360 C 185.015 160.554,185.052 160.848,185.217 161.013 C 185.418 161.213,185.590 161.196,185.736 160.961 C 185.856 160.767,185.819 160.473,185.653 160.308 C 185.453 160.108,185.280 160.125,185.135 160.360 M165.165 161.061 C 165.165 161.336,164.962 161.562,164.715 161.562 C 164.230 161.562,164.093 162.321,164.530 162.591 C 164.844 162.785,165.633 161.028,165.356 160.751 C 165.251 160.646,165.165 160.786,165.165 161.061 M201.908 162.234 C 201.674 162.612,201.277 162.492,201.082 161.985 C 200.796 161.240,201.213 160.862,201.654 161.465 C 201.871 161.762,201.985 162.108,201.908 162.234 M189.189 161.962 C 189.189 162.585,189.545 162.791,189.987 162.423 C 190.569 161.940,190.483 161.562,189.790 161.562 C 189.459 161.562,189.189 161.742,189.189 161.962 M165.766 162.312 C 165.766 162.560,165.968 162.763,166.216 162.763 C 166.464 162.763,166.667 162.560,166.667 162.312 C 166.667 162.065,166.464 161.862,166.216 161.862 C 165.968 161.862,165.766 162.065,165.766 162.312 M191.051 162.823 C 190.853 163.021,190.691 163.291,190.691 163.423 C 190.691 163.866,191.143 163.670,191.522 163.063 C 191.933 162.406,191.625 162.249,191.051 162.823 M138.814 164.114 C 138.818 164.775,138.879 165.010,138.951 164.636 C 139.023 164.263,139.020 163.722,138.945 163.435 C 138.870 163.148,138.811 163.453,138.814 164.114 M164.910 163.545 C 164.687 163.797,164.582 164.081,164.677 164.177 C 164.886 164.386,165.766 163.699,165.766 163.327 C 165.766 162.928,165.364 163.030,164.910 163.545 M202.703 163.632 C 202.703 164.153,202.161 164.565,201.477 164.565 C 201.325 164.565,201.201 164.227,201.201 163.814 C 201.201 163.213,201.351 163.063,201.952 163.063 C 202.488 163.063,202.703 163.225,202.703 163.632 M224.410 164.414 C 224.412 165.240,224.471 165.542,224.540 165.086 C 224.609 164.629,224.607 163.954,224.536 163.584 C 224.464 163.215,224.408 163.589,224.410 164.414 M208.475 167.253 C 208.457 167.859,208.594 168.168,208.879 168.168 C 209.116 168.168,209.309 168.025,209.309 167.850 C 209.309 167.675,209.436 167.611,209.591 167.706 C 209.747 167.802,209.853 167.608,209.828 167.274 C 209.803 166.940,209.687 166.667,209.570 166.667 C 209.454 166.667,209.165 166.593,208.930 166.502 C 208.619 166.383,208.493 166.589,208.475 167.253 M205.492 167.267 C 205.314 167.949,204.505 168.092,204.505 167.442 C 204.505 167.063,204.889 166.758,205.452 166.690 C 205.561 166.677,205.579 166.937,205.492 167.267 M224.406 167.868 C 224.406 168.611,224.465 168.915,224.536 168.544 C 224.608 168.172,224.608 167.564,224.536 167.192 C 224.465 166.821,224.406 167.125,224.406 167.868 M200.844 168.318 C 200.776 168.896,200.829 169.369,200.961 169.369 C 201.093 169.369,201.201 168.896,201.201 168.318 C 201.201 167.740,201.148 167.267,201.084 167.267 C 201.019 167.267,200.911 167.740,200.844 168.318 M170.270 168.168 C 170.270 168.333,170.473 168.468,170.721 168.468 C 170.968 168.468,171.171 168.333,171.171 168.168 C 171.171 168.003,170.968 167.868,170.721 167.868 C 170.473 167.868,170.270 168.003,170.270 168.168 M195.398 168.065 C 195.102 168.362,195.798 169.073,196.358 169.045 C 196.669 169.030,196.710 168.967,196.471 168.870 C 196.265 168.787,196.096 168.527,196.096 168.293 C 196.096 167.847,195.734 167.729,195.398 168.065 M171.471 169.219 C 171.471 169.467,171.607 169.670,171.772 169.670 C 171.937 169.670,172.072 169.467,172.072 169.219 C 172.072 168.971,171.937 168.769,171.772 168.769 C 171.607 168.769,171.471 168.971,171.471 169.219 M197.650 169.077 C 197.723 169.297,198.040 169.621,198.354 169.798 C 198.667 169.975,199.108 170.289,199.333 170.495 C 199.558 170.702,200.071 170.871,200.472 170.871 C 200.873 170.871,201.201 171.014,201.201 171.189 C 201.201 171.364,201.351 171.414,201.534 171.302 C 201.729 171.181,201.751 171.019,201.587 170.908 C 201.433 170.805,201.220 170.484,201.114 170.195 C 201.007 169.906,200.705 169.670,200.442 169.670 C 200.179 169.670,200.048 169.805,200.150 169.970 C 200.507 170.548,199.597 170.263,198.562 169.473 C 197.987 169.035,197.577 168.857,197.650 169.077 M168.841 170.810 C 169.257 171.256,169.952 172.013,170.385 172.491 C 170.817 172.970,171.171 173.227,171.171 173.063 C 171.171 172.900,170.901 172.521,170.571 172.222 C 169.926 171.639,169.758 170.391,170.300 170.210 C 170.482 170.150,170.058 170.077,169.357 170.049 L 168.083 169.998 168.841 170.810 M114.184 173.574 C 114.184 174.152,114.246 174.388,114.321 174.099 C 114.397 173.810,114.397 173.337,114.321 173.048 C 114.246 172.759,114.184 172.995,114.184 173.574 M138.821 178.979 C 138.821 179.722,138.879 180.026,138.951 179.655 C 139.022 179.283,139.022 178.675,138.951 178.303 C 138.879 177.932,138.821 178.236,138.821 178.979 M180.631 184.079 C 182.347 186.029,182.282 185.973,182.282 185.511 C 182.282 185.281,181.974 184.832,181.597 184.514 C 180.109 183.255,179.771 183.103,180.631 184.079 M261.753 186.637 C 261.648 186.911,261.753 187.087,262.021 187.087 C 262.264 187.087,262.462 186.884,262.462 186.637 C 262.462 186.389,262.342 186.186,262.194 186.186 C 262.047 186.186,261.848 186.389,261.753 186.637 M185.890 189.797 C 186.262 190.493,186.486 190.559,186.486 189.972 C 186.486 189.742,186.281 189.475,186.029 189.378 C 185.656 189.235,185.630 189.312,185.890 189.797 M114.184 199.399 C 114.184 199.977,114.246 200.214,114.321 199.925 C 114.397 199.636,114.397 199.163,114.321 198.874 C 114.246 198.585,114.184 198.821,114.184 199.399 " stroke="none" fill="#2d74f2" fill-rule="evenodd"></path><path id="path3" d="M114.135 98.874 C 114.184 100.423,114.507 100.574,115.494 99.509 C 116.556 98.364,116.508 98.198,115.115 98.198 C 114.271 98.198,114.117 98.304,114.135 98.874 M134.835 98.525 C 134.835 99.197,136.321 99.689,136.626 99.119 C 137.092 98.248,137.029 98.173,135.886 98.250 C 135.308 98.289,134.835 98.413,134.835 98.525 M114.449 106.732 C 114.430 109.361,114.503 111.423,114.611 111.315 C 114.882 111.044,114.946 104.307,114.690 103.005 C 114.575 102.418,114.468 104.065,114.449 106.732 M114.449 121.496 C 114.469 127.188,114.583 130.872,114.719 130.180 C 115.003 128.730,114.914 112.111,114.621 111.818 C 114.507 111.705,114.430 116.060,114.449 121.496 M114.500 132.883 C 114.503 133.709,114.561 134.011,114.630 133.554 C 114.699 133.098,114.697 132.422,114.626 132.053 C 114.555 131.684,114.498 132.057,114.500 132.883 M114.496 145.646 C 114.496 146.389,114.555 146.693,114.626 146.321 C 114.698 145.950,114.698 145.342,114.626 144.970 C 114.555 144.598,114.496 144.902,114.496 145.646 M187.988 157.658 C 187.988 157.823,188.191 157.958,188.438 157.958 C 188.686 157.958,188.889 157.823,188.889 157.658 C 188.889 157.492,188.686 157.357,188.438 157.357 C 188.191 157.357,187.988 157.492,187.988 157.658 M138.814 169.219 C 138.818 169.880,138.879 170.115,138.951 169.741 C 139.023 169.368,139.020 168.827,138.945 168.540 C 138.870 168.253,138.811 168.559,138.814 169.219 M114.523 174.775 C 114.523 176.344,114.573 176.986,114.635 176.201 C 114.697 175.417,114.697 174.133,114.635 173.348 C 114.573 172.564,114.523 173.206,114.523 174.775 M114.444 192.968 C 114.461 197.744,114.568 201.315,114.682 200.904 C 114.906 200.102,114.784 184.654,114.553 184.423 C 114.477 184.347,114.428 188.192,114.444 192.968 M272.181 186.111 C 271.758 186.182,271.482 186.507,271.370 187.068 C 271.250 187.667,268.545 190.596,262.163 197.036 C 250.097 209.212,250.679 208.550,251.802 208.832 C 252.215 208.936,252.553 209.221,252.553 209.465 C 252.553 210.373,253.087 209.869,253.434 208.634 C 253.739 207.546,255.191 205.933,263.232 197.748 C 268.424 192.462,272.672 188.037,272.672 187.913 C 272.673 187.789,272.793 187.688,272.941 187.688 C 273.412 187.688,273.610 186.693,273.209 186.341 C 272.997 186.155,272.534 186.051,272.181 186.111 M256.122 186.677 C 256.507 186.946,256.909 187.048,257.015 186.902 C 257.121 186.756,257.477 186.590,257.808 186.533 C 258.968 186.333,258.643 186.186,257.040 186.186 C 255.458 186.186,255.437 186.197,256.122 186.677 M195.495 200.761 C 195.495 200.852,195.766 201.216,196.096 201.571 C 196.524 202.030,196.697 202.090,196.697 201.781 C 196.697 201.541,196.426 201.177,196.096 200.971 C 195.766 200.764,195.495 200.670,195.495 200.761 M196.997 202.200 C 196.997 202.546,198.510 203.992,198.687 203.815 C 198.869 203.634,198.529 203.232,197.521 202.441 C 197.233 202.214,196.997 202.106,196.997 202.200 M114.431 204.955 C 114.418 206.276,114.325 207.661,114.225 208.033 C 114.066 208.628,114.156 208.709,114.980 208.709 C 115.958 208.709,116.240 208.297,115.465 208.000 C 115.129 207.871,115.010 207.309,114.994 205.790 C 114.962 202.741,114.462 201.998,114.431 204.955 M198.681 204.679 C 198.428 205.338,198.446 205.405,198.877 205.405 C 199.085 205.405,199.427 205.681,199.637 206.018 C 200.299 207.076,200.601 206.342,199.955 205.247 C 199.279 204.101,198.958 203.958,198.681 204.679 M200.901 206.921 C 200.901 207.333,202.445 208.687,202.928 208.699 C 203.464 208.713,203.409 208.585,202.432 207.539 C 201.556 206.601,200.901 206.337,200.901 206.921 M138.138 208.021 C 136.692 208.552,136.153 209.910,137.387 209.910 C 137.938 209.910,138.138 209.750,138.138 209.309 C 138.138 208.979,138.259 208.709,138.406 208.709 C 138.554 208.709,138.752 208.506,138.847 208.258 C 139.028 207.789,138.893 207.743,138.138 208.021 M209.610 209.309 C 209.610 209.474,210.116 209.608,210.736 209.605 C 211.573 209.602,211.746 209.526,211.411 209.309 C 210.820 208.927,209.610 208.927,209.610 209.309 M217.306 209.247 C 217.225 209.377,217.623 209.430,218.189 209.364 C 218.756 209.298,219.219 209.191,219.219 209.126 C 219.219 208.900,217.451 209.011,217.306 209.247 M232.800 209.361 C 232.954 209.822,234.230 209.909,234.244 209.459 C 234.249 209.294,233.896 209.115,233.460 209.061 C 232.906 208.992,232.707 209.083,232.800 209.361 M296.847 210.210 C 296.949 210.375,297.303 210.511,297.633 210.511 C 297.963 210.511,298.150 210.375,298.048 210.210 C 297.946 210.045,297.592 209.910,297.262 209.910 C 296.932 209.910,296.745 210.045,296.847 210.210 " stroke="none" fill="#205c9c" fill-rule="evenodd"></path><path id="path4" d="M200.192 98.106 C 199.896 98.402,199.974 131.626,200.271 132.095 C 200.805 132.938,201.280 128.317,201.068 124.354 C 200.839 120.097,200.871 100.292,201.107 99.910 C 201.731 98.899,222.991 98.538,223.974 99.521 C 224.435 99.982,224.481 103.328,224.553 142.428 C 224.596 165.752,224.700 185.139,224.784 185.511 C 224.934 186.176,225.008 186.186,229.635 186.186 C 232.220 186.186,234.274 186.126,234.201 186.053 C 234.127 185.979,232.145 185.893,229.796 185.861 L 225.526 185.802 225.526 142.016 L 225.526 98.230 213.175 98.208 C 206.382 98.196,200.725 98.125,200.604 98.050 C 200.483 97.975,200.298 98.001,200.192 98.106 M113.402 98.874 C 113.068 100.121,113.188 208.701,113.524 209.329 C 113.934 210.094,136.637 210.257,136.637 209.494 C 136.637 208.785,135.596 208.717,124.688 208.713 L 114.091 208.709 114.149 208.033 C 114.358 205.605,114.064 98.198,113.849 98.198 C 113.703 98.198,113.502 98.502,113.402 98.874 M136.829 98.707 C 136.437 99.098,136.656 99.909,137.312 100.500 C 137.684 100.834,138.187 101.399,138.430 101.755 C 138.673 102.111,139.028 102.402,139.219 102.402 C 139.410 102.402,139.733 102.604,139.937 102.850 C 140.141 103.095,140.428 103.223,140.575 103.132 C 140.721 103.042,140.841 103.322,140.841 103.754 C 140.841 104.323,141.342 105.026,142.643 106.283 C 143.634 107.240,144.444 108.163,144.444 108.332 C 144.444 108.502,144.912 108.862,145.483 109.133 C 146.159 109.454,146.464 109.776,146.357 110.055 C 146.259 110.309,146.754 111.054,147.571 111.882 C 148.329 112.651,148.949 113.394,148.949 113.533 C 148.949 113.780,149.798 114.679,150.938 115.640 C 151.248 115.901,151.907 116.638,152.402 117.277 C 154.199 119.596,156.216 121.780,156.890 122.136 C 157.269 122.336,157.813 122.995,158.100 123.599 C 158.387 124.203,158.870 124.762,159.174 124.842 C 159.479 124.921,159.769 125.154,159.819 125.358 C 159.940 125.851,161.741 128.079,163.097 129.413 C 163.694 130.000,164.600 131.066,165.110 131.782 C 166.757 134.093,171.327 139.039,171.816 139.039 C 171.957 139.039,172.072 139.194,172.072 139.382 C 172.072 139.571,172.472 140.146,172.960 140.659 C 173.449 141.172,174.665 142.442,175.663 143.482 C 176.661 144.521,177.487 145.535,177.499 145.734 C 177.511 145.933,178.177 146.637,178.979 147.297 C 179.781 147.958,180.447 148.644,180.459 148.822 C 180.482 149.161,181.957 150.894,184.601 153.687 C 185.463 154.597,186.477 155.795,186.853 156.348 C 187.287 156.985,187.785 157.354,188.213 157.355 C 189.116 157.358,189.072 156.656,188.138 156.156 C 187.725 155.935,187.387 155.574,187.387 155.355 C 187.387 155.135,187.281 154.955,187.152 154.955 C 187.022 154.955,186.682 154.558,186.395 154.072 C 186.108 153.587,185.606 153.105,185.279 153.001 C 184.952 152.897,184.685 152.601,184.685 152.342 C 184.685 151.793,183.573 150.751,182.987 150.751 C 182.765 150.751,182.583 150.528,182.583 150.256 C 182.583 149.983,182.110 149.301,181.532 148.740 C 180.953 148.178,180.480 147.611,180.480 147.480 C 180.480 147.106,177.388 143.977,176.802 143.758 C 176.513 143.651,176.276 143.355,176.276 143.103 C 176.276 142.850,176.162 142.643,176.023 142.643 C 175.884 142.643,175.516 142.170,175.204 141.592 C 174.657 140.575,174.174 140.223,174.174 140.841 C 174.174 141.006,174.039 141.141,173.874 141.141 C 173.709 141.141,173.570 140.702,173.565 140.165 C 173.559 139.403,173.330 139.025,172.523 138.438 C 171.954 138.026,171.484 137.582,171.480 137.452 C 171.475 137.323,171.100 136.842,170.646 136.383 C 170.191 135.924,169.279 134.906,168.619 134.120 C 167.958 133.334,167.080 132.309,166.667 131.842 C 166.254 131.375,165.673 130.641,165.376 130.211 C 165.080 129.781,164.640 129.429,164.400 129.429 C 164.160 129.429,163.964 129.228,163.964 128.981 C 163.964 128.734,163.356 127.915,162.613 127.161 C 161.869 126.407,161.261 125.663,161.261 125.508 C 161.261 125.352,161.116 125.225,160.940 125.225 C 160.590 125.225,159.760 124.486,159.760 124.174 C 159.760 123.862,158.930 123.123,158.580 123.123 C 158.403 123.123,158.258 122.986,158.258 122.819 C 158.258 122.382,156.954 120.429,156.660 120.424 C 156.372 120.420,155.556 119.647,155.556 119.378 C 155.556 119.172,155.401 118.976,153.902 117.284 C 153.325 116.632,152.853 115.990,152.853 115.857 C 152.853 115.724,152.515 115.616,152.102 115.616 C 151.542 115.616,151.351 115.457,151.351 114.991 C 151.351 114.638,150.764 113.821,150.000 113.109 C 149.257 112.417,148.649 111.700,148.649 111.515 C 148.649 111.331,148.311 110.959,147.898 110.688 C 147.485 110.418,147.147 110.046,147.147 109.863 C 147.147 109.491,145.995 108.408,145.600 108.408 C 145.460 108.408,145.345 108.260,145.345 108.078 C 145.345 107.896,144.872 107.275,144.294 106.697 C 143.716 106.119,143.243 105.524,143.243 105.375 C 143.243 105.227,143.070 105.105,142.858 105.105 C 142.645 105.105,142.242 104.716,141.961 104.239 C 141.196 102.946,139.858 101.502,139.423 101.502 C 139.212 101.502,139.039 101.231,139.039 100.901 C 139.039 100.571,138.894 100.300,138.717 100.300 C 138.310 100.300,137.538 99.540,137.538 99.138 C 137.538 98.742,137.075 98.461,136.829 98.707 M199.700 136.018 C 199.700 136.339,199.835 136.685,200.000 136.787 C 200.170 136.892,200.300 136.640,200.300 136.204 C 200.300 135.781,200.165 135.435,200.000 135.435 C 199.835 135.435,199.700 135.698,199.700 136.018 M139.039 137.666 C 139.039 137.902,139.377 138.360,139.790 138.685 C 140.203 139.010,140.541 139.471,140.541 139.709 C 140.541 139.947,141.486 141.132,142.643 142.342 C 143.799 143.552,144.745 144.647,144.745 144.774 C 144.745 144.901,145.015 145.090,145.345 145.195 C 145.676 145.300,145.946 145.578,145.946 145.813 C 145.946 146.379,146.879 147.447,147.373 147.447 C 147.590 147.447,147.854 147.684,147.960 147.973 C 148.066 148.262,148.603 148.929,149.152 149.454 C 149.701 149.980,150.150 150.607,150.150 150.849 C 150.150 151.090,150.353 151.365,150.601 151.460 C 150.925 151.584,151.051 151.428,151.051 150.901 C 151.051 150.189,149.246 148.048,148.645 148.048 C 148.488 148.048,148.086 147.509,147.750 146.851 C 147.414 146.192,146.532 145.047,145.792 144.306 C 145.051 143.565,144.444 142.839,144.444 142.692 C 144.444 142.429,139.425 137.237,139.171 137.237 C 139.098 137.237,139.039 137.430,139.039 137.666 M200.204 138.438 C 200.106 139.017,199.977 143.138,199.916 147.598 C 199.855 152.057,199.854 154.241,199.913 152.452 C 199.993 150.020,200.150 148.999,200.536 148.411 C 201.131 147.502,201.244 139.931,200.687 138.288 L 200.381 137.387 200.204 138.438 M138.808 152.252 C 138.808 152.830,138.870 153.067,138.946 152.778 C 139.021 152.489,139.021 152.016,138.946 151.727 C 138.870 151.438,138.808 151.674,138.808 152.252 M151.351 151.788 C 151.351 152.028,151.689 152.563,152.102 152.976 C 152.515 153.389,152.853 153.810,152.853 153.912 C 152.853 154.202,153.679 154.955,153.998 154.955 C 154.155 154.955,154.355 155.225,154.441 155.554 C 154.527 155.884,154.847 156.248,155.152 156.363 C 155.894 156.644,156.456 157.226,156.457 157.711 C 156.457 158.143,157.746 159.760,158.089 159.760 C 158.427 159.760,159.159 160.585,159.159 160.965 C 159.159 161.326,159.447 161.652,163.208 165.558 C 164.450 166.847,165.465 168.088,165.465 168.315 C 165.465 168.541,165.770 168.770,166.141 168.823 C 166.524 168.877,166.819 169.131,166.821 169.408 C 166.824 169.677,167.263 170.306,167.797 170.805 C 168.332 171.304,168.769 171.829,168.769 171.971 C 168.769 172.113,169.107 172.484,169.520 172.794 C 169.932 173.104,170.270 173.491,170.270 173.655 C 170.270 173.819,170.743 174.399,171.321 174.944 C 171.899 175.490,172.372 176.018,172.372 176.120 C 172.372 176.221,172.676 176.629,173.048 177.026 C 173.420 177.424,173.882 177.924,174.076 178.139 C 174.270 178.353,174.912 178.971,175.503 179.512 C 176.093 180.053,176.577 180.623,176.577 180.778 C 176.577 180.933,176.847 181.205,177.177 181.381 C 177.508 181.558,177.778 181.834,177.778 181.994 C 177.778 182.155,178.589 183.117,179.580 184.133 C 180.571 185.149,181.381 186.085,181.381 186.213 C 181.381 186.341,182.125 187.213,183.033 188.151 C 183.941 189.089,184.685 189.977,184.685 190.124 C 184.685 190.270,184.829 190.390,185.006 190.390 C 185.483 190.390,186.186 191.180,186.186 191.715 C 186.186 191.971,186.524 192.266,186.937 192.369 C 187.359 192.475,187.688 192.775,187.688 193.053 C 187.688 193.326,187.958 193.718,188.288 193.924 C 188.619 194.131,188.889 194.478,188.889 194.697 C 188.889 194.915,189.227 195.275,189.640 195.495 C 190.053 195.716,190.390 196.076,190.390 196.294 C 190.390 196.513,190.862 196.996,191.438 197.370 C 192.014 197.743,192.487 198.197,192.489 198.380 C 192.494 198.817,193.877 200.300,194.280 200.300 C 194.453 200.300,194.595 200.098,194.595 199.850 C 194.595 199.602,194.459 199.399,194.294 199.399 C 194.129 199.399,193.994 199.197,193.994 198.949 C 193.994 198.701,193.893 198.498,193.769 198.498 C 193.410 198.498,191.892 197.107,191.892 196.779 C 191.892 196.615,191.420 196.023,190.844 195.463 C 190.268 194.903,189.795 194.276,189.793 194.069 C 189.791 193.863,189.529 193.694,189.209 193.694 C 188.890 193.694,188.553 193.457,188.460 193.168 C 188.218 192.414,186.912 190.966,186.681 191.197 C 186.574 191.304,186.486 191.182,186.486 190.927 C 186.486 190.480,184.582 188.238,182.587 186.336 C 181.893 185.675,180.400 183.860,179.503 182.588 C 178.581 181.281,175.777 178.195,174.099 176.641 C 173.645 176.221,173.273 175.769,173.273 175.636 C 173.273 175.504,172.429 174.537,171.396 173.487 C 168.167 170.201,167.094 168.950,166.660 167.965 C 166.428 167.440,166.132 167.076,166.002 167.156 C 165.872 167.237,165.765 167.126,165.764 166.910 C 165.763 166.693,165.294 166.198,164.723 165.809 C 164.151 165.420,163.603 164.846,163.503 164.533 C 163.404 164.220,163.129 163.964,162.893 163.964 C 162.656 163.964,162.462 163.839,162.462 163.687 C 162.462 163.534,162.057 163.004,161.562 162.509 C 161.066 162.013,160.661 161.521,160.661 161.414 C 160.661 161.308,160.188 160.775,159.610 160.230 C 159.032 159.684,158.559 159.071,158.559 158.866 C 158.559 158.661,157.815 157.750,156.907 156.842 C 155.998 155.933,155.256 155.036,155.258 154.847 C 155.260 154.467,152.003 151.351,151.603 151.351 C 151.465 151.351,151.351 151.548,151.351 151.788 M188.790 157.856 C 188.502 158.145,189.829 159.783,192.609 162.571 C 193.949 163.915,195.383 165.521,195.796 166.139 C 196.209 166.757,196.713 167.264,196.916 167.265 C 197.120 167.266,197.372 167.610,197.477 168.030 C 197.674 168.813,199.307 170.270,199.988 170.270 C 200.509 170.270,199.617 168.892,198.336 167.718 C 197.795 167.222,197.268 166.527,197.165 166.174 C 197.062 165.820,196.730 165.466,196.429 165.387 C 196.128 165.308,195.694 164.821,195.465 164.304 C 195.236 163.786,194.911 163.363,194.743 163.363 C 194.574 163.363,194.168 163.002,193.840 162.560 C 193.087 161.546,192.152 160.661,191.835 160.661 C 191.701 160.661,191.592 160.458,191.592 160.210 C 191.592 159.962,191.456 159.760,191.291 159.760 C 191.126 159.760,190.991 159.567,190.991 159.331 C 190.991 158.576,189.242 157.405,188.790 157.856 M200.000 165.190 C 200.000 168.414,200.088 169.390,200.371 169.296 C 201.155 169.034,201.340 164.988,200.714 161.787 C 200.319 159.762,200.000 161.280,200.000 165.190 M266.066 185.893 C 263.584 186.070,263.616 186.076,267.220 186.108 C 269.259 186.127,270.992 186.207,271.071 186.287 C 271.151 186.366,271.610 186.319,272.091 186.181 C 272.571 186.043,273.031 186.037,273.112 186.168 C 273.277 186.436,274.714 186.227,274.912 185.907 C 275.069 185.653,269.555 185.645,266.066 185.893 M283.033 185.886 C 282.803 186.258,286.672 186.258,287.538 185.886 C 287.941 185.712,287.332 185.621,285.678 185.607 C 284.326 185.595,283.135 185.721,283.033 185.886 M236.862 186.106 C 237.564 186.169,238.712 186.169,239.414 186.106 C 240.116 186.043,239.542 185.991,238.138 185.991 C 236.734 185.991,236.160 186.043,236.862 186.106 M243.322 186.101 C 243.779 186.170,244.455 186.169,244.824 186.097 C 245.193 186.026,244.820 185.970,243.994 185.972 C 243.168 185.974,242.866 186.032,243.322 186.101 M254.955 186.637 C 254.955 186.930,255.243 187.084,255.781 187.078 C 256.572 187.068,256.582 187.049,256.024 186.627 C 255.281 186.065,254.955 186.068,254.955 186.637 M258.108 186.470 C 257.778 186.603,257.406 186.653,257.282 186.581 C 257.158 186.510,257.057 186.600,257.057 186.782 C 257.057 187.266,261.625 187.053,261.788 186.562 C 261.930 186.130,259.126 186.061,258.108 186.470 M304.805 188.589 C 304.805 189.149,304.885 189.229,305.165 188.949 C 305.445 188.669,305.445 188.509,305.165 188.228 C 304.885 187.948,304.805 188.028,304.805 188.589 M138.808 189.489 C 138.808 190.068,138.870 190.304,138.946 190.015 C 139.021 189.726,139.021 189.253,138.946 188.964 C 138.870 188.675,138.808 188.911,138.808 189.489 M304.898 191.742 C 304.900 192.733,304.956 193.102,305.022 192.562 C 305.089 192.022,305.088 191.212,305.019 190.760 C 304.951 190.309,304.896 190.751,304.898 191.742 M304.891 198.348 C 304.893 199.174,304.951 199.476,305.020 199.020 C 305.089 198.563,305.087 197.888,305.016 197.518 C 304.945 197.149,304.888 197.523,304.891 198.348 M194.601 200.976 C 194.605 201.182,195.078 201.755,195.652 202.249 C 196.227 202.743,196.697 203.309,196.697 203.505 C 196.697 203.702,196.967 203.949,197.297 204.054 C 197.628 204.159,197.898 204.371,197.898 204.525 C 197.898 204.679,198.101 204.805,198.348 204.805 C 199.122 204.805,198.857 204.359,196.949 202.450 C 195.093 200.595,194.589 200.278,194.601 200.976 M304.906 206.006 C 304.906 207.245,304.959 207.752,305.024 207.132 C 305.088 206.513,305.088 205.499,305.024 204.880 C 304.959 204.261,304.906 204.767,304.906 206.006 M198.690 205.856 C 198.785 206.104,199.047 206.306,199.272 206.306 C 199.512 206.306,199.609 206.120,199.508 205.856 C 199.413 205.608,199.151 205.405,198.926 205.405 C 198.686 205.405,198.589 205.591,198.690 205.856 M200.001 206.982 C 200.002 207.188,200.604 207.932,201.339 208.634 L 202.675 209.910 205.767 209.905 C 211.008 209.898,210.953 208.984,205.695 208.718 C 202.520 208.558,200.901 207.957,200.901 206.939 C 200.901 206.756,200.698 206.607,200.450 206.607 C 200.203 206.607,200.001 206.776,200.001 206.982 M138.514 208.575 C 138.060 209.069,138.018 209.910,138.448 209.910 C 138.829 209.910,139.125 209.197,138.989 208.606 C 138.905 208.237,138.829 208.232,138.514 208.575 M234.892 208.921 C 234.331 209.030,234.267 209.137,234.554 209.483 C 235.076 210.112,252.553 210.120,252.553 209.492 C 252.553 209.262,252.375 209.005,252.158 208.922 C 251.672 208.735,235.852 208.734,234.892 208.921 M256.846 210.133 C 258.133 210.190,260.160 210.189,261.350 210.133 C 262.540 210.076,261.486 210.030,259.009 210.030 C 256.532 210.030,255.558 210.077,256.846 210.133 M275.014 210.134 C 276.385 210.189,278.547 210.189,279.819 210.133 C 281.091 210.077,279.970 210.031,277.327 210.031 C 274.685 210.032,273.644 210.078,275.014 210.134 M291.667 210.132 C 292.616 210.191,294.170 210.191,295.120 210.132 C 296.070 210.072,295.293 210.023,293.393 210.023 C 291.494 210.023,290.717 210.072,291.667 210.132 " stroke="none" fill="#5e8ee2" fill-rule="evenodd"></path></g></svg>